<svg width="23" height="32" viewBox="0 0 23 32" fill="none" xmlns="http://www.w3.org/2000/svg">
<path d="M11.808 6.99999C11.264 6.99999 10.816 7.33599 10.464 8.00799C10.112 8.67999 9.84002 9.54399 9.64802 10.6C9.45602 11.624 9.32802 12.744 9.26402 13.96C9.20002 15.144 9.16802 16.28 9.16802 17.368C9.16802 19.192 9.34402 20.84 9.69602 22.312C10.08 23.752 10.688 24.904 11.52 25.768C12.352 26.6 13.456 27.016 14.832 27.016H20.976V30.328C20.464 30.456 19.776 30.584 18.912 30.712C18.08 30.84 17.216 30.968 16.32 31.096C15.456 31.224 14.688 31.32 14.016 31.384C13.344 31.448 12.928 31.48 12.768 31.48C10.56 31.48 8.72002 30.904 7.24802 29.752C5.80802 28.568 4.72002 26.936 3.98402 24.856C3.24802 22.776 2.88002 20.408 2.88002 17.752C2.88002 16.312 2.99202 15.016 3.21602 13.864C3.47202 12.68 3.82402 11.576 4.27202 10.552C4.59202 10.104 5.08802 9.59199 5.76002 9.01599C6.43202 8.40799 7.18402 7.86399 8.01602 7.38399C8.88002 6.87199 9.74402 6.56799 10.608 6.47199L11.808 6.99999ZM22.752 2.15199L21.84 6.27999C21.168 6.53599 20.432 6.79199 19.632 7.04799C18.864 7.27199 18.112 7.46399 17.376 7.62399C16.672 7.75199 16.032 7.81599 15.456 7.81599C14.72 7.81599 14.096 7.73599 13.584 7.57599C13.072 7.41599 12.56 7.25599 12.048 7.09599C11.568 6.93599 10.96 6.85599 10.224 6.85599C10.064 6.85599 9.82402 6.87199 9.50402 6.90399C9.21602 6.90399 8.97602 6.93599 8.78402 6.99999L8.68802 6.71199L0.528015 5.84799L1.44002 0.855988C3.64802 1.11199 5.69602 1.38399 7.58402 1.67199C9.47202 1.95999 11.104 2.19999 12.48 2.39199C13.856 2.55199 14.864 2.63199 15.504 2.63199C15.952 2.63199 16.496 2.59999 17.136 2.53599C17.776 2.43999 18.528 2.31199 19.392 2.15199C20.256 1.99199 21.2 1.79999 22.224 1.57599L22.752 2.15199ZM12.048 27.064V4.64799H14.592V24.328C14.592 24.52 14.496 24.872 14.304 25.384C14.112 25.864 13.84 26.424 13.488 27.064H12.048Z" fill="#005531"/>
</svg>
